<svg id="Layer_1" data-name="Layer 1" xmlns="http://www.w3.org/2000/svg" viewBox="0 0 205.27 171.28"><path id="Path_382" data-name="Path 382" d="M201.06,26.67h-6.95V21.82a4.87,4.87,0,0,0-4-4.79V15.94a6.64,6.64,0,0,0-6.6-6.64h-5.87a6.64,6.64,0,0,0-6.6,6.64V17a4.88,4.88,0,0,0-4,4.79v4.85H152.86V8.36A8.35,8.35,0,0,0,144.55,0H60.72a8.35,8.35,0,0,0-8.31,8.36V26.67H38V21.82A4.88,4.88,0,0,0,34,17V15.94A6.63,6.63,0,0,0,27.4,9.3H21.54a6.63,6.63,0,0,0-6.6,6.64V17a4.88,4.88,0,0,0-4,4.79v4.85H4.21A4.21,4.21,0,0,0,0,30.88V47.25a4.2,4.2,0,0,0,4.21,4.21h6.7v94.78a10.09,10.09,0,0,0-8.52,10v12.55a2.52,2.52,0,0,0,2.52,2.52H200.36a2.52,2.52,0,0,0,2.52-2.52V156.21a10.11,10.11,0,0,0-8.52-10V51.47h6.7a4.2,4.2,0,0,0,4.21-4.2V30.89a4.22,4.22,0,0,0-4.2-4.22Zm-25-10.73a1.57,1.57,0,0,1,1.56-1.59h5.86a1.59,1.59,0,0,1,1.57,1.59v1h-9Zm-4,6.06h17v4.67h-17ZM57.45,8.36a3.29,3.29,0,0,1,3.27-3.31h83.83a3.29,3.29,0,0,1,3.27,3.31v2.29H57.44Zm0,7.34h90.37v11H57.44ZM20,15.94a1.59,1.59,0,0,1,1.57-1.59h5.86A1.57,1.57,0,0,1,29,15.94v1H20ZM16,22H33v4.67h-17ZM197.83,156.21v10H7.43v-10a5.06,5.06,0,0,1,5.05-5.05h180.3a5.07,5.07,0,0,1,5.05,5.05Zm-63.37-70h54.85v28.38H133.44a35,35,0,0,0,1-28.38Zm-2.51-5a34.44,34.44,0,0,0-59.12,0H15.94V51.47H189.3V81.2Zm0,18.09a29.55,29.55,0,1,1-29.55-29.8A29.55,29.55,0,0,1,131.94,99.28Zm-61.63-13a35,35,0,0,0,1,28.38H15.94V86.24Zm4,33.43a34.42,34.42,0,0,0,56.06,0h58.9v26.44H15.94V119.67ZM200.23,46.42H5V31.71H200.22Z"/><path id="Path_383" data-name="Path 383" d="M35.61,102.26h4.58v4.63a2.53,2.53,0,0,0,5.05.15v-4.78h4.57A2.53,2.53,0,1,0,50,97.21H45.24V92.58a2.53,2.53,0,0,0-5.05-.16v4.79H35.62a2.53,2.53,0,0,0,0,5.05Z"/><path id="Path_384" data-name="Path 384" d="M156.64,102.26h14.2a2.53,2.53,0,0,0,0-5.05h-14.2a2.53,2.53,0,1,0-.16,5.05Z"/><path id="Path_385" data-name="Path 385" d="M112.13,95.59l-5.2-.25,3.23-9.4a2.53,2.53,0,0,0-1.58-3.21,2.46,2.46,0,0,0-.81-.14H97.2a2.54,2.54,0,0,0-2.48,2.06L91.2,103.12a2.52,2.52,0,0,0,2,2.95,3.59,3.59,0,0,0,.46.05h3.6l-1.18,13.37a2.52,2.52,0,0,0,4.66,1.55l13.4-21.6a2.54,2.54,0,0,0-.82-3.48,2.59,2.59,0,0,0-1.2-.37Zm-10.07,13.77.48-5.55a2.51,2.51,0,0,0-2.29-2.73H96.73l2.56-13.45h4.95l-3.16,9.24a2.52,2.52,0,0,0,1.57,3.21,2.28,2.28,0,0,0,.69.13l4.26.21Z"/></svg>