<svg id="Layer_1" data-name="Layer 1" xmlns="http://www.w3.org/2000/svg" viewBox="0 0 174.32 174.07"><path id="Path_380" data-name="Path 380" d="M166,33.89H163A36.48,36.48,0,0,0,126.82.06l-14-.06A36.49,36.49,0,0,0,76.33,33.51l-5.76,0a8.42,8.42,0,0,0-8.45,8.38L62,81.14a8.43,8.43,0,0,0,8.38,8.45l14,.06-.09,22.44H81.46a8.42,8.42,0,0,0-8.15,6.29l-6-14.55A14,14,0,0,0,54.4,95.13L24.49,95a14,14,0,0,0-13,8.57L1.33,127.71a16.83,16.83,0,0,0-.06,13l10,24.21a14,14,0,0,0,12.92,8.69l29.92.12a14,14,0,0,0,13-8.58l9-21.3a8.27,8.27,0,0,0,5.27,1.94l2.81,0-.08,19.63a8.42,8.42,0,0,0,8.37,8.46l50.5.21a8.42,8.42,0,0,0,8.45-8.38l.09-19.66h2.8a8.41,8.41,0,0,0,8.45-8.38l.07-16.83a8.41,8.41,0,0,0-8.38-8.45h-2.82l.1-22.45,14,.06a8.43,8.43,0,0,0,8.46-8.38l.16-39.27A8.42,8.42,0,0,0,166,33.89ZM112.77,5.61l14,.06a30.88,30.88,0,0,1,30.59,28.18l-75.45-.32A30.89,30.89,0,0,1,112.77,5.61ZM145.15,146l-20.29,22.35-14.9-.06L130.25,146Zm-38.56-5.79.09-22.44,22.45.09-.1,22.45Zm3.61-28,20.29-22.35,14.9.06-20.3,22.36Zm-9-28.09.19-44.87,33.66.14-.19,44.88ZM67.56,81.15l.17-39.27a2.82,2.82,0,0,1,2.82-2.8l25.24.11L95.6,84.08,70.36,84a2.81,2.81,0,0,1-2.8-2.81Zm32.94,8.56L89.92,101.36l0-11.7Zm-10.62,20,18.18-20L123,89.8l-20.29,22.36-12.78-.06Zm-28,53.17a8.4,8.4,0,0,1-7.79,5.14l-29.92-.12a8.4,8.4,0,0,1-7.75-5.22l-10-24.21a11.27,11.27,0,0,1,0-8.63l10.17-24.13a8.4,8.4,0,0,1,7.79-5.14l29.92.13A8.39,8.39,0,0,1,62.13,106l10,24.21a11.18,11.18,0,0,1,0,8.63Zm16.65-25.61.08-16.83a2.8,2.8,0,0,1,2.81-2.8l19.64.08L101,140.21l-19.64-.09a2.79,2.79,0,0,1-2.79-2.8Zm21.72,8.51L89.68,157.47l0-11.7Zm-10.54,20,18.09-19.93,14.89.06-20.29,22.36-10,0a2.79,2.79,0,0,1-2.72-2.44Zm53.21,2.67-10.53,0,13.4-14.76-.05,12a2.81,2.81,0,0,1-2.81,2.79Zm14.24-47.63-.07,16.83a2.8,2.8,0,0,1-2.82,2.79l-19.64-.08.1-22.44,19.63.08A2.82,2.82,0,0,1,157.17,120.82Zm-24.53-8.52L146,97.53,146,112.36Zm35.92-30.71a2.82,2.82,0,0,1-2.82,2.8l-25.25-.11.19-44.89,25.25.11a2.8,2.8,0,0,1,2.79,2.82Z"/><path id="Path_381" data-name="Path 381" d="M39.49,109.61a24.93,24.93,0,1,0,24.93,24.93h0A25,25,0,0,0,39.49,109.61Zm0,44.89a19.95,19.95,0,1,1,19.95-19.95h0A20,20,0,0,1,39.49,154.5Z"/></svg>