<svg id="Layer_1" data-name="Layer 1" xmlns="http://www.w3.org/2000/svg" viewBox="0 0 197.64 197.62"><defs><style>.cls-1{fill:none;stroke:#000;stroke-linecap:round;stroke-miterlimit:10;stroke-width:3.5px;}</style></defs><g id="Group_209" data-name="Group 209"><path id="Path_386" data-name="Path 386" d="M192.31,166.54l-70-70,6.21-6.21a3.24,3.24,0,0,0,0-4.59h0l-1.41-1.41L169.22,42.2l10.67-3.78A3.27,3.27,0,0,0,181.6,37l12.9-22.06A3.27,3.27,0,0,0,194,11l-7.33-7.33a3.24,3.24,0,0,0-3.94-.51l-22.06,12.9a3.25,3.25,0,0,0-1.43,1.71l-3.78,10.66L113.34,70.55l-1.41-1.41a3.25,3.25,0,0,0-4.6,0h0l-6.21,6.2L88.79,63A46,46,0,0,0,31.41,2.38a3.24,3.24,0,0,0-2,4.11,3,3,0,0,0,.78,1.26L46.26,23.86,42.55,42.31l-19.22,3.4L7.81,30.07a3.26,3.26,0,0,0-4.61,0,3.36,3.36,0,0,0-.79,1.27A46,46,0,0,0,63,88.77l6.68,6.69-7.78,4.26a3,3,0,0,0-.73.55L8.35,153.12a19.21,19.21,0,0,0,0,27.15l9,9a19.23,19.23,0,0,0,27.15,0l52.85-52.85a3.55,3.55,0,0,0,.56-.73l4.26-7.79,64.36,64.36a18.22,18.22,0,1,0,25.76-25.76Zm-31.73-134a3.23,3.23,0,0,0,.76-1.22L165,21.06l18.87-11,3.78,3.78-11,18.87-10.24,3.63a3.13,3.13,0,0,0-1.22.77L122.5,79.71l-4.57-4.57ZM109.64,76l12,12-5.08,5.07-12-12ZM116,104.6a3.23,3.23,0,1,1-4.4,4.73l-.11-.11,0,0L88.48,86.28a3.23,3.23,0,0,1,4.57-4.57Zm-49.86-22A3.23,3.23,0,0,0,62.45,82a39.71,39.71,0,0,1-44.34-8A39.26,39.26,0,0,1,7.21,38.68L19.94,51.5a3.22,3.22,0,0,0,2.87.91l23.08-4.07a3.26,3.26,0,0,0,2.62-2.57L53,23.44a3.25,3.25,0,0,0-.89-2.93L38.77,7.18A39.27,39.27,0,0,1,74,18.09a39.68,39.68,0,0,1,8,44.33,3.27,3.27,0,0,0,.66,3.65l8.2,8.2a9.65,9.65,0,0,0-7,2.84,8.77,8.77,0,0,0-1,1.14h0a10.14,10.14,0,0,0-1.73,7.46h0a9.45,9.45,0,0,0,1,2.93l-6.55,3.59ZM98.56,121l0,0-6.09,11.12L39.93,184.71a12.72,12.72,0,0,1-18,0l-9-9a12.7,12.7,0,0,1,0-18l52.52-52.52L76.6,99.12l0,0,10-5.48L104,111Zm89.16,66.66h0a11.73,11.73,0,0,1-16.57,0L105.44,122l3.59-6.55a9.64,9.64,0,0,0,2.93,1h0s5,.61,7.47-1.72a10.5,10.5,0,0,0,1.13-1,9.65,9.65,0,0,0,2.84-7l64.33,64.32a11.73,11.73,0,0,1,0,16.58Z"/><line id="Line_59" data-name="Line 59" class="cls-1" x1="29.05" y1="167.09" x2="84.23" y2="113.67"/></g></svg>