<svg id="Layer_1" data-name="Layer 1" xmlns="http://www.w3.org/2000/svg" viewBox="0 0 228.85 160.35"><defs><style>.cls-1,.cls-2{stroke:#f2b652;}.cls-1{stroke-miterlimit:10;stroke-width:0.5px;}</style></defs><g id="Group_206" data-name="Group 206"><g id="Group_202" data-name="Group 202"><path id="Path_376" data-name="Path 376" class="cls-1" d="M227.88,76.48,198.52,40.6A3.23,3.23,0,0,0,196,39.4H156.85V3.51A3.26,3.26,0,0,0,153.59.25H3.51A3.26,3.26,0,0,0,.25,3.51V130.74A9.78,9.78,0,0,0,10,140.52H33.12a22.81,22.81,0,0,0,45.15,0h88.61a22.81,22.81,0,0,0,45.15,0h13.31a3.26,3.26,0,0,0,3.26-3.26V78.53A3.26,3.26,0,0,0,227.88,76.48ZM222.1,88.33H183V62.24H207.8l14.3,17.47ZM6.79,6.78H150.33v94.6H6.79Zm0,124V107.91H150.33V134h-72a22.81,22.81,0,0,0-45.16,0H10.05a3.26,3.26,0,0,1-3.26-3.26Zm48.93,22.84A16.31,16.31,0,1,1,72,137.27a16.31,16.31,0,0,1-16.31,16.31Zm133.75,0a16.31,16.31,0,1,1,16.32-16.31,16.3,16.3,0,0,1-16.32,16.31ZM212.05,134a22.81,22.81,0,0,0-45.15,0H156.85V45.92h37.6l8,9.78H183a6.52,6.52,0,0,0-6.52,6.52h0V88.32A6.53,6.53,0,0,0,183,94.85H222.1v11.74h-5.61a3.26,3.26,0,0,0,0,6.52h5.61V119h-5.61a3.26,3.26,0,0,0,0,6.52h5.61V134Z"/><path id="Path_377" data-name="Path 377" class="cls-1" d="M179.69,100.16h-9.78a3.27,3.27,0,0,0,0,6.53h9.78a3.27,3.27,0,0,0,0-6.53Z"/><path id="Path_378" data-name="Path 378" class="cls-1" d="M78.56,18.2a35.89,35.89,0,1,0,35.88,35.88A35.88,35.88,0,0,0,78.56,18.2Zm0,65.24a29.36,29.36,0,1,1,29.36-29.36h0A29.35,29.35,0,0,1,78.56,83.44Z"/><path id="Path_379" data-name="Path 379" class="cls-1" d="M78.56,50.82a5,5,0,1,1,5-5,3.27,3.27,0,1,0,6.53,0h0a11.56,11.56,0,0,0-8.29-11.07V32.88a3.26,3.26,0,1,0-6.52-.18v2a11.54,11.54,0,0,0,3.26,22.62,5,5,0,1,1,.06,10.06h-.13a5,5,0,0,1-5-5,3.27,3.27,0,0,0-6.53,0,11.58,11.58,0,0,0,8.3,11.08v1.83a3.26,3.26,0,1,0,6.52.18v-2a11.55,11.55,0,0,0-3.26-22.68Z"/></g><circle id="Ellipse_10" data-name="Ellipse 10" class="cls-2" cx="55.79" cy="136.84" r="4.17"/><circle id="Ellipse_11" data-name="Ellipse 11" class="cls-2" cx="189.63" cy="136.84" r="4.17"/></g></svg>